<svg width="192" height="11" viewBox="0 0 192 11" fill="none" xmlns="http://www.w3.org/2000/svg">
<path d="M1.55449 2.96691C1.55449 3.35691 1.64949 3.69691 1.83949 3.98691C2.02949 4.27691 2.25949 4.52191 2.52949 4.72191C2.80949 4.91191 3.18949 5.15191 3.66949 5.44191C4.19949 5.76191 4.60449 6.02691 4.88449 6.23691C5.17449 6.44691 5.41949 6.71691 5.61949 7.04691C5.82949 7.36691 5.93449 7.75191 5.93449 8.20191C5.93449 8.68191 5.81449 9.11691 5.57449 9.50691C5.33449 9.89691 4.97949 10.2069 4.50949 10.4369C4.04949 10.6569 3.49449 10.7669 2.84449 10.7669C2.07449 10.7669 1.36949 10.5919 0.729494 10.2419C0.679494 10.2119 0.644494 10.1769 0.624494 10.1369C0.614494 10.0969 0.604494 10.0369 0.594494 9.95691L0.399494 7.91691C0.389494 7.87691 0.409494 7.85191 0.459494 7.84191C0.519494 7.83191 0.554494 7.84691 0.564494 7.88691C0.724494 8.60691 1.01949 9.22691 1.44949 9.74691C1.88949 10.2669 2.46949 10.5269 3.18949 10.5269C3.68949 10.5269 4.10949 10.3919 4.44949 10.1219C4.79949 9.84191 4.97449 9.40191 4.97449 8.80191C4.97449 8.35191 4.87449 7.96191 4.67449 7.63191C4.47449 7.30191 4.22949 7.03191 3.93949 6.82191C3.65949 6.60191 3.27449 6.34691 2.78449 6.05691C2.30449 5.76691 1.92449 5.51691 1.64449 5.30691C1.37449 5.09691 1.14449 4.83191 0.954494 4.51191C0.764494 4.19191 0.669494 3.81691 0.669494 3.38691C0.669494 2.88691 0.799494 2.46191 1.05949 2.11191C1.32949 1.75191 1.67449 1.48691 2.09449 1.31691C2.52449 1.13691 2.97949 1.04691 3.45949 1.04691C4.04949 1.04691 4.63449 1.16691 5.21449 1.40691C5.36449 1.45691 5.43949 1.54191 5.43949 1.66191L5.54449 3.38691C5.54449 3.42691 5.51949 3.44691 5.46949 3.44691C5.41949 3.44691 5.38949 3.42691 5.37949 3.38691C5.29949 2.86691 5.08449 2.38691 4.73449 1.94691C4.38449 1.49691 3.87949 1.27191 3.21949 1.27191C2.65949 1.27191 2.23949 1.43691 1.95949 1.76691C1.68949 2.08691 1.55449 2.48691 1.55449 2.96691ZM18.3877 10.7669C17.4577 10.7669 16.6277 10.5519 15.8977 10.1219C15.1777 9.68191 14.6177 9.09191 14.2177 8.35191C13.8277 7.60191 13.6327 6.78691 13.6327 5.90691C13.6327 4.87691 13.8927 3.99691 14.4127 3.26691C14.9327 2.52691 15.5977 1.97191 16.4077 1.60191C17.2277 1.23191 18.0627 1.04691 18.9127 1.04691C19.8627 1.04691 20.6977 1.27191 21.4177 1.72191C22.1377 2.16191 22.6877 2.74691 23.0677 3.47691C23.4577 4.20691 23.6527 4.98191 23.6527 5.80191C23.6527 6.71191 23.4127 7.54691 22.9327 8.30691C22.4527 9.06691 21.8077 9.66691 20.9977 10.1069C20.1977 10.5469 19.3277 10.7669 18.3877 10.7669ZM18.9127 10.4519C19.5927 10.4519 20.2027 10.2869 20.7427 9.95691C21.2927 9.62691 21.7227 9.14191 22.0327 8.50191C22.3527 7.86191 22.5127 7.10191 22.5127 6.22191C22.5127 5.28191 22.3377 4.44691 21.9877 3.71691C21.6377 2.98691 21.1427 2.41691 20.5027 2.00691C19.8727 1.59691 19.1327 1.39191 18.2827 1.39191C17.1827 1.39191 16.3227 1.74691 15.7027 2.45691C15.0827 3.16691 14.7727 4.14191 14.7727 5.38191C14.7727 6.32191 14.9477 7.18191 15.2977 7.96191C15.6477 8.73191 16.1377 9.34191 16.7677 9.79191C17.3977 10.2319 18.1127 10.4519 18.9127 10.4519ZM37.372 3.19191C37.372 3.22191 37.347 3.24191 37.297 3.25191C37.247 3.25191 37.217 3.23691 37.207 3.20691C37.177 2.67691 37.017 2.26691 36.727 1.97691C36.437 1.67691 36.052 1.52691 35.572 1.52691H34.657C34.317 1.52691 34.062 1.55191 33.892 1.60191C33.722 1.65191 33.602 1.74191 33.532 1.87191C33.472 2.00191 33.442 2.19191 33.442 2.44191V5.72691H34.957C35.487 5.72691 35.862 5.64691 36.082 5.48691C36.312 5.31691 36.427 5.04691 36.427 4.67691C36.427 4.65691 36.457 4.64691 36.517 4.64691C36.577 4.64691 36.607 4.65691 36.607 4.67691L36.592 5.89191C36.592 6.18191 36.597 6.40191 36.607 6.55191L36.622 7.27191C36.622 7.29191 36.592 7.30191 36.532 7.30191C36.472 7.30191 36.442 7.29191 36.442 7.27191C36.442 6.83191 36.322 6.51691 36.082 6.32691C35.852 6.13691 35.462 6.04191 34.912 6.04191H33.442V9.31191C33.442 9.63191 33.482 9.86691 33.562 10.0169C33.652 10.1569 33.822 10.2569 34.072 10.3169C34.322 10.3769 34.717 10.4069 35.257 10.4069C35.287 10.4069 35.302 10.4369 35.302 10.4969C35.302 10.5569 35.287 10.5869 35.257 10.5869C34.847 10.5869 34.527 10.5819 34.297 10.5719L32.947 10.5569L31.927 10.5719C31.747 10.5819 31.492 10.5869 31.162 10.5869C31.142 10.5869 31.132 10.5569 31.132 10.4969C31.132 10.4369 31.142 10.4069 31.162 10.4069C31.542 10.4069 31.822 10.3819 32.002 10.3319C32.182 10.2819 32.302 10.1869 32.362 10.0469C32.432 9.89691 32.467 9.67191 32.467 9.37191V2.42691C32.467 2.12691 32.432 1.90691 32.362 1.76691C32.302 1.62691 32.182 1.53191 32.002 1.48191C31.832 1.42191 31.557 1.39191 31.177 1.39191C31.157 1.39191 31.147 1.36191 31.147 1.30191C31.147 1.24191 31.157 1.21191 31.177 1.21191H37.207C37.297 1.21191 37.342 1.25691 37.342 1.34691L37.372 3.19191ZM47.2989 9.37191C47.2989 9.67191 47.3289 9.89691 47.3889 10.0469C47.4489 10.1869 47.5639 10.2819 47.7339 10.3319C47.9139 10.3819 48.1939 10.4069 48.5739 10.4069C48.6039 10.4069 48.6189 10.4369 48.6189 10.4969C48.6189 10.5569 48.6039 10.5869 48.5739 10.5869C48.2739 10.5869 48.0339 10.5819 47.8539 10.5719L46.7889 10.5569L45.7539 10.5719C45.5739 10.5819 45.3289 10.5869 45.0189 10.5869C44.9889 10.5869 44.9739 10.5569 44.9739 10.4969C44.9739 10.4369 44.9889 10.4069 45.0189 10.4069C45.3989 10.4069 45.6739 10.3819 45.8439 10.3319C46.0239 10.2819 46.1439 10.1869 46.2039 10.0469C46.2739 9.89691 46.3089 9.67191 46.3089 9.37191V2.42691C46.3089 2.12691 46.2739 1.90691 46.2039 1.76691C46.1439 1.62691 46.0239 1.53191 45.8439 1.48191C45.6739 1.42191 45.3989 1.39191 45.0189 1.39191C44.9889 1.39191 44.9739 1.36191 44.9739 1.30191C44.9739 1.24191 44.9889 1.21191 45.0189 1.21191L45.7539 1.22691C46.1739 1.24691 46.5189 1.25691 46.7889 1.25691C47.0889 1.25691 47.4489 1.24691 47.8689 1.22691L48.5739 1.21191C48.6039 1.21191 48.6189 1.24191 48.6189 1.30191C48.6189 1.36191 48.6039 1.39191 48.5739 1.39191C48.2039 1.39191 47.9289 1.42191 47.7489 1.48191C47.5789 1.54191 47.4589 1.64691 47.3889 1.79691C47.3289 1.93691 47.2989 2.15691 47.2989 2.45691V9.37191ZM62.5693 8.35191C62.5693 8.33191 62.5893 8.32191 62.6293 8.32191C62.6593 8.32191 62.6843 8.32691 62.7043 8.33691C62.7343 8.34691 62.7493 8.36191 62.7493 8.38191C62.6593 9.01191 62.6143 9.67191 62.6143 10.3619C62.6143 10.4419 62.5943 10.5019 62.5543 10.5419C62.5243 10.5719 62.4643 10.5869 62.3743 10.5869H56.0893C56.0693 10.5869 56.0593 10.5569 56.0593 10.4969C56.0593 10.4369 56.0693 10.4069 56.0893 10.4069C56.4693 10.4069 56.7443 10.3819 56.9143 10.3319C57.0943 10.2819 57.2143 10.1869 57.2743 10.0469C57.3443 9.89691 57.3793 9.67191 57.3793 9.37191V2.42691C57.3793 2.12691 57.3443 1.90691 57.2743 1.76691C57.2143 1.62691 57.0943 1.53191 56.9143 1.48191C56.7443 1.42191 56.4693 1.39191 56.0893 1.39191C56.0693 1.39191 56.0593 1.36191 56.0593 1.30191C56.0593 1.24191 56.0693 1.21191 56.0893 1.21191H62.1193C62.2093 1.21191 62.2543 1.25691 62.2543 1.34691L62.2843 3.19191C62.2843 3.22191 62.2593 3.24191 62.2093 3.25191C62.1593 3.25191 62.1293 3.23691 62.1193 3.20691C62.0893 2.67691 61.9293 2.26691 61.6393 1.97691C61.3493 1.67691 60.9643 1.52691 60.4843 1.52691H59.5693C59.2193 1.52691 58.9593 1.55691 58.7893 1.61691C58.6293 1.66691 58.5143 1.76191 58.4443 1.90191C58.3843 2.03191 58.3543 2.23191 58.3543 2.50191V5.54691H60.1843C60.6643 5.54691 61.0043 5.46691 61.2043 5.30691C61.4143 5.14691 61.5193 4.87691 61.5193 4.49691C61.5193 4.47691 61.5493 4.46691 61.6093 4.46691C61.6693 4.46691 61.6993 4.47691 61.6993 4.49691L61.6843 5.71191C61.6843 6.00191 61.6893 6.22191 61.6993 6.37191L61.7143 7.09191C61.7143 7.11191 61.6843 7.12191 61.6243 7.12191C61.5643 7.12191 61.5343 7.11191 61.5343 7.09191C61.5343 6.65191 61.4243 6.33691 61.2043 6.14691C60.9943 5.95691 60.6393 5.86191 60.1393 5.86191H58.3543V9.31191C58.3543 9.59191 58.3843 9.79691 58.4443 9.92691C58.5043 10.0569 58.6143 10.1469 58.7743 10.1969C58.9343 10.2469 59.1843 10.2719 59.5243 10.2719H60.7243C61.2043 10.2719 61.6043 10.1019 61.9243 9.76191C62.2443 9.42191 62.4593 8.95191 62.5693 8.35191ZM90.2366 4.88691C90.4866 4.88691 90.6116 5.04191 90.6116 5.35191C90.6116 5.60191 90.5416 5.84691 90.4016 6.08691C90.2716 6.31691 90.0916 6.50691 89.8616 6.65691C89.6316 6.80691 89.3866 6.88191 89.1266 6.88191C88.8466 6.88191 88.4866 6.77691 88.0466 6.56691C87.8666 7.93691 87.4066 8.98191 86.6666 9.70191C85.9366 10.4119 85.0266 10.7669 83.9366 10.7669C83.2566 10.7669 82.6466 10.6069 82.1066 10.2869C81.5766 9.95691 81.1616 9.52191 80.8616 8.98191C80.5616 8.44191 80.4116 7.85691 80.4116 7.22691C80.4116 6.95691 80.4416 6.68691 80.5016 6.41691C80.6216 5.88691 80.8516 5.40691 81.1916 4.97691C81.5316 4.54691 81.9316 4.21191 82.3916 3.97191C82.8516 3.73191 83.3166 3.61191 83.7866 3.61191C84.2866 3.61191 84.6966 3.75191 85.0166 4.03191C85.6166 3.36191 85.9166 2.77691 85.9166 2.27691C85.9166 2.08691 85.8866 1.94191 85.8266 1.84191C85.7666 1.73191 85.6816 1.63191 85.5716 1.54191C85.4916 1.46191 85.4316 1.39191 85.3916 1.33191C85.3516 1.27191 85.3316 1.18691 85.3316 1.07691C85.3316 0.926914 85.3766 0.806913 85.4666 0.716913C85.5566 0.626913 85.6716 0.581913 85.8116 0.581913C86.0316 0.581913 86.2116 0.681913 86.3516 0.881914C86.4916 1.08191 86.5616 1.34691 86.5616 1.67691C86.5616 2.23691 86.3516 2.80691 85.9316 3.38691C85.5116 3.96691 85.0066 4.51191 84.4166 5.02191C83.8266 5.52191 83.0866 6.10691 82.1966 6.77691L81.3266 7.45191C81.4266 7.99191 81.6316 8.47191 81.9416 8.89191C82.2516 9.30191 82.6216 9.62191 83.0516 9.85191C83.4916 10.0719 83.9516 10.1819 84.4316 10.1819C85.3416 10.1819 86.0966 9.86191 86.6966 9.22191C87.3066 8.58191 87.6766 7.66191 87.8066 6.46191L87.5216 6.31191C87.1016 6.09191 86.7666 5.93191 86.5166 5.83191C86.2666 5.72191 86.0266 5.66691 85.7966 5.66691C85.6566 5.66691 85.5416 5.69691 85.4516 5.75691C85.3716 5.81691 85.3316 5.89191 85.3316 5.98191C85.3316 6.10191 85.3716 6.24191 85.4516 6.40191C85.5316 6.58191 85.5716 6.71191 85.5716 6.79191C85.5716 6.88191 85.5416 6.96691 85.4816 7.04691C85.4216 7.11691 85.3316 7.15191 85.2116 7.15191C85.0916 7.15191 84.9916 7.11691 84.9116 7.04691C84.8416 6.96691 84.8066 6.84191 84.8066 6.67191C84.8066 6.41191 84.8866 6.16191 85.0466 5.92191C85.2166 5.68191 85.4316 5.49191 85.6916 5.35191C85.9616 5.20191 86.2366 5.12691 86.5166 5.12691C86.7666 5.12691 87.0216 5.18191 87.2816 5.29191C87.5516 5.39191 87.8816 5.54191 88.2716 5.74191C88.5916 5.91191 88.8666 6.04691 89.0966 6.14691C89.3266 6.23691 89.5366 6.28191 89.7266 6.28191C89.8566 6.28191 89.9616 6.25691 90.0416 6.20691C90.1316 6.14691 90.1766 6.07691 90.1766 5.99691C90.1766 5.90691 90.1266 5.79191 90.0266 5.65191C89.9666 5.57191 89.9216 5.50191 89.8916 5.44191C89.8616 5.38191 89.8466 5.31191 89.8466 5.23191C89.8466 5.00191 89.9766 4.88691 90.2366 4.88691ZM81.3266 5.93691C81.2766 6.25691 81.2516 6.52691 81.2516 6.74691C81.2516 6.85691 81.2616 7.01191 81.2816 7.21191C81.5516 6.99191 81.8316 6.77191 82.1216 6.55191C83.0316 5.85191 83.7416 5.27191 84.2516 4.81191C84.0016 4.28191 83.5916 4.01691 83.0216 4.01691C82.6316 4.01691 82.2816 4.20191 81.9716 4.57191C81.6716 4.93191 81.4566 5.38691 81.3266 5.93691ZM113.522 8.35191C113.522 8.33191 113.542 8.32191 113.582 8.32191C113.612 8.32191 113.637 8.32691 113.657 8.33691C113.687 8.34691 113.702 8.36191 113.702 8.38191C113.612 9.01191 113.567 9.67191 113.567 10.3619C113.567 10.4419 113.547 10.5019 113.507 10.5419C113.477 10.5719 113.417 10.5869 113.327 10.5869H107.042C107.022 10.5869 107.012 10.5569 107.012 10.4969C107.012 10.4369 107.022 10.4069 107.042 10.4069C107.422 10.4069 107.697 10.3819 107.867 10.3319C108.047 10.2819 108.167 10.1869 108.227 10.0469C108.297 9.89691 108.332 9.67191 108.332 9.37191V2.42691C108.332 2.12691 108.297 1.90691 108.227 1.76691C108.167 1.62691 108.047 1.53191 107.867 1.48191C107.697 1.42191 107.422 1.39191 107.042 1.39191C107.022 1.39191 107.012 1.36191 107.012 1.30191C107.012 1.24191 107.022 1.21191 107.042 1.21191H113.072C113.162 1.21191 113.207 1.25691 113.207 1.34691L113.237 3.19191C113.237 3.22191 113.212 3.24191 113.162 3.25191C113.112 3.25191 113.082 3.23691 113.072 3.20691C113.042 2.67691 112.882 2.26691 112.592 1.97691C112.302 1.67691 111.917 1.52691 111.437 1.52691H110.522C110.172 1.52691 109.912 1.55691 109.742 1.61691C109.582 1.66691 109.467 1.76191 109.397 1.90191C109.337 2.03191 109.307 2.23191 109.307 2.50191V5.54691H111.137C111.617 5.54691 111.957 5.46691 112.157 5.30691C112.367 5.14691 112.472 4.87691 112.472 4.49691C112.472 4.47691 112.502 4.46691 112.562 4.46691C112.622 4.46691 112.652 4.47691 112.652 4.49691L112.637 5.71191C112.637 6.00191 112.642 6.22191 112.652 6.37191L112.667 7.09191C112.667 7.11191 112.637 7.12191 112.577 7.12191C112.517 7.12191 112.487 7.11191 112.487 7.09191C112.487 6.65191 112.377 6.33691 112.157 6.14691C111.947 5.95691 111.592 5.86191 111.092 5.86191H109.307V9.31191C109.307 9.59191 109.337 9.79691 109.397 9.92691C109.457 10.0569 109.567 10.1469 109.727 10.1969C109.887 10.2469 110.137 10.2719 110.477 10.2719H111.677C112.157 10.2719 112.557 10.1019 112.877 9.76191C113.197 9.42191 113.412 8.95191 113.522 8.35191ZM130.849 10.4069C130.869 10.4069 130.879 10.4369 130.879 10.4969C130.879 10.5569 130.869 10.5869 130.849 10.5869H128.914C128.664 10.5869 128.194 10.1719 127.504 9.34191C126.814 8.51191 125.994 7.37191 125.044 5.92191C124.774 5.98191 124.494 6.01191 124.204 6.01191C124.144 6.01191 123.919 5.99691 123.529 5.96691V9.37191C123.529 9.68191 123.559 9.90691 123.619 10.0469C123.679 10.1869 123.794 10.2819 123.964 10.3319C124.144 10.3819 124.424 10.4069 124.804 10.4069C124.834 10.4069 124.849 10.4369 124.849 10.4969C124.849 10.5569 124.834 10.5869 124.804 10.5869C124.494 10.5869 124.249 10.5819 124.069 10.5719L123.034 10.5569L122.014 10.5719C121.834 10.5819 121.579 10.5869 121.249 10.5869C121.229 10.5869 121.219 10.5569 121.219 10.4969C121.219 10.4369 121.229 10.4069 121.249 10.4069C121.629 10.4069 121.909 10.3819 122.089 10.3319C122.269 10.2819 122.389 10.1869 122.449 10.0469C122.519 9.89691 122.554 9.67191 122.554 9.37191V2.42691C122.554 2.12691 122.524 1.90691 122.464 1.76691C122.404 1.62691 122.284 1.53191 122.104 1.48191C121.934 1.42191 121.659 1.39191 121.279 1.39191C121.249 1.39191 121.234 1.36191 121.234 1.30191C121.234 1.24191 121.249 1.21191 121.279 1.21191L122.014 1.22691C122.434 1.24691 122.774 1.25691 123.034 1.25691C123.254 1.25691 123.459 1.25191 123.649 1.24191C123.839 1.23191 123.999 1.22191 124.129 1.21191C124.499 1.18191 124.834 1.16691 125.134 1.16691C125.924 1.16691 126.534 1.34691 126.964 1.70691C127.394 2.06691 127.609 2.54691 127.609 3.14691C127.609 3.68691 127.449 4.17691 127.129 4.61691C126.819 5.04691 126.404 5.38691 125.884 5.63691C126.724 6.84691 127.429 7.79691 127.999 8.48691C128.579 9.16691 129.089 9.65691 129.529 9.95691C129.979 10.2569 130.419 10.4069 130.849 10.4069ZM123.529 5.60691C123.779 5.64691 124.074 5.66691 124.414 5.66691C125.194 5.66691 125.749 5.49691 126.079 5.15691C126.419 4.81691 126.589 4.29191 126.589 3.58191C126.589 2.80191 126.414 2.24191 126.064 1.90191C125.724 1.56191 125.224 1.39191 124.564 1.39191C124.174 1.39191 123.904 1.46191 123.754 1.60191C123.604 1.74191 123.529 2.02691 123.529 2.45691V5.60691ZM139.621 9.31191C139.621 9.60191 139.651 9.81191 139.711 9.94191C139.771 10.0719 139.881 10.1619 140.041 10.2119C140.201 10.2519 140.461 10.2719 140.821 10.2719H142.456C143.026 10.2719 143.481 10.0969 143.821 9.74691C144.161 9.39691 144.386 8.91191 144.496 8.29191C144.496 8.26191 144.521 8.25191 144.571 8.26191C144.631 8.26191 144.661 8.27691 144.661 8.30691C144.571 9.13691 144.526 9.82191 144.526 10.3619C144.526 10.4419 144.511 10.5019 144.481 10.5419C144.451 10.5719 144.391 10.5869 144.301 10.5869H137.371C137.351 10.5869 137.341 10.5569 137.341 10.4969C137.341 10.4369 137.351 10.4069 137.371 10.4069C137.751 10.4069 138.026 10.3819 138.196 10.3319C138.376 10.2819 138.496 10.1869 138.556 10.0469C138.616 9.89691 138.646 9.67191 138.646 9.37191V2.42691C138.646 2.12691 138.616 1.90691 138.556 1.76691C138.496 1.62691 138.376 1.53191 138.196 1.48191C138.026 1.42191 137.751 1.39191 137.371 1.39191C137.351 1.39191 137.341 1.36191 137.341 1.30191C137.341 1.24191 137.351 1.21191 137.371 1.21191L138.106 1.22691C138.526 1.24691 138.866 1.25691 139.126 1.25691C139.406 1.25691 139.756 1.24691 140.176 1.22691L140.896 1.21191C140.926 1.21191 140.941 1.24191 140.941 1.30191C140.941 1.36191 140.926 1.39191 140.896 1.39191C140.526 1.39191 140.251 1.42191 140.071 1.48191C139.901 1.53191 139.781 1.63191 139.711 1.78191C139.651 1.92191 139.621 2.14191 139.621 2.44191V9.31191ZM158.119 8.35191C158.119 8.33191 158.139 8.32191 158.179 8.32191C158.209 8.32191 158.234 8.32691 158.254 8.33691C158.284 8.34691 158.299 8.36191 158.299 8.38191C158.209 9.01191 158.164 9.67191 158.164 10.3619C158.164 10.4419 158.144 10.5019 158.104 10.5419C158.074 10.5719 158.014 10.5869 157.924 10.5869H151.639C151.619 10.5869 151.609 10.5569 151.609 10.4969C151.609 10.4369 151.619 10.4069 151.639 10.4069C152.019 10.4069 152.294 10.3819 152.464 10.3319C152.644 10.2819 152.764 10.1869 152.824 10.0469C152.894 9.89691 152.929 9.67191 152.929 9.37191V2.42691C152.929 2.12691 152.894 1.90691 152.824 1.76691C152.764 1.62691 152.644 1.53191 152.464 1.48191C152.294 1.42191 152.019 1.39191 151.639 1.39191C151.619 1.39191 151.609 1.36191 151.609 1.30191C151.609 1.24191 151.619 1.21191 151.639 1.21191H157.669C157.759 1.21191 157.804 1.25691 157.804 1.34691L157.834 3.19191C157.834 3.22191 157.809 3.24191 157.759 3.25191C157.709 3.25191 157.679 3.23691 157.669 3.20691C157.639 2.67691 157.479 2.26691 157.189 1.97691C156.899 1.67691 156.514 1.52691 156.034 1.52691H155.119C154.769 1.52691 154.509 1.55691 154.339 1.61691C154.179 1.66691 154.064 1.76191 153.994 1.90191C153.934 2.03191 153.904 2.23191 153.904 2.50191V5.54691H155.734C156.214 5.54691 156.554 5.46691 156.754 5.30691C156.964 5.14691 157.069 4.87691 157.069 4.49691C157.069 4.47691 157.099 4.46691 157.159 4.46691C157.219 4.46691 157.249 4.47691 157.249 4.49691L157.234 5.71191C157.234 6.00191 157.239 6.22191 157.249 6.37191L157.264 7.09191C157.264 7.11191 157.234 7.12191 157.174 7.12191C157.114 7.12191 157.084 7.11191 157.084 7.09191C157.084 6.65191 156.974 6.33691 156.754 6.14691C156.544 5.95691 156.189 5.86191 155.689 5.86191H153.904V9.31191C153.904 9.59191 153.934 9.79691 153.994 9.92691C154.054 10.0569 154.164 10.1469 154.324 10.1969C154.484 10.2469 154.734 10.2719 155.074 10.2719H156.274C156.754 10.2719 157.154 10.1019 157.474 9.76191C157.794 9.42191 158.009 8.95191 158.119 8.35191ZM175.761 1.21191C175.791 1.21191 175.806 1.24191 175.806 1.30191C175.806 1.36191 175.791 1.39191 175.761 1.39191C175.341 1.39191 175.036 1.50691 174.846 1.73691C174.656 1.96691 174.561 2.34191 174.561 2.86191V10.7669C174.561 10.7869 174.536 10.8019 174.486 10.8119C174.436 10.8219 174.401 10.8169 174.381 10.7969L167.481 2.44191L167.346 2.29191V8.95191C167.346 9.47191 167.436 9.84691 167.616 10.0769C167.806 10.2969 168.106 10.4069 168.516 10.4069C168.546 10.4069 168.561 10.4369 168.561 10.4969C168.561 10.5569 168.546 10.5869 168.516 10.5869C168.266 10.5869 168.076 10.5819 167.946 10.5719L167.196 10.5569L166.431 10.5719C166.291 10.5819 166.086 10.5869 165.816 10.5869C165.796 10.5869 165.786 10.5569 165.786 10.4969C165.786 10.4369 165.796 10.4069 165.816 10.4069C166.246 10.4069 166.551 10.2969 166.731 10.0769C166.911 9.84691 167.001 9.47191 167.001 8.95191V1.93191C166.611 1.57191 166.216 1.39191 165.816 1.39191C165.786 1.39191 165.771 1.36191 165.771 1.30191C165.771 1.24191 165.786 1.21191 165.816 1.21191L166.371 1.22691C166.491 1.23691 166.656 1.24191 166.866 1.24191C167.086 1.24191 167.266 1.23691 167.406 1.22691C167.546 1.21691 167.656 1.21191 167.736 1.21191C167.816 1.21191 167.871 1.23191 167.901 1.27191C167.941 1.30191 168.001 1.37691 168.081 1.49691C168.201 1.67691 168.321 1.84191 168.441 1.99191L174.216 9.08691V2.86191C174.216 2.34191 174.126 1.96691 173.946 1.73691C173.776 1.50691 173.486 1.39191 173.076 1.39191C173.056 1.39191 173.046 1.36191 173.046 1.30191C173.046 1.24191 173.056 1.21191 173.076 1.21191L173.661 1.22691C173.961 1.24691 174.206 1.25691 174.396 1.25691C174.576 1.25691 174.826 1.24691 175.146 1.22691L175.761 1.21191ZM186.794 10.6469C186.504 10.6469 186.169 10.6319 185.789 10.6019C185.649 10.5919 185.469 10.5819 185.249 10.5719C185.039 10.5619 184.804 10.5569 184.544 10.5569L183.524 10.5719C183.344 10.5819 183.094 10.5869 182.774 10.5869C182.754 10.5869 182.744 10.5569 182.744 10.4969C182.744 10.4369 182.754 10.4069 182.774 10.4069C183.154 10.4069 183.429 10.3819 183.599 10.3319C183.779 10.2819 183.899 10.1869 183.959 10.0469C184.029 9.89691 184.064 9.67191 184.064 9.37191V2.42691C184.064 2.12691 184.034 1.90691 183.974 1.76691C183.914 1.62691 183.794 1.53191 183.614 1.48191C183.444 1.42191 183.169 1.39191 182.789 1.39191C182.769 1.39191 182.759 1.36191 182.759 1.30191C182.759 1.24191 182.769 1.21191 182.789 1.21191L183.539 1.22691C183.959 1.24691 184.294 1.25691 184.544 1.25691C184.924 1.25691 185.299 1.24191 185.669 1.21191C186.109 1.19191 186.414 1.18191 186.584 1.18191C187.624 1.18191 188.544 1.38191 189.344 1.78191C190.154 2.18191 190.779 2.72691 191.219 3.41691C191.659 4.10691 191.879 4.88191 191.879 5.74191C191.879 6.71191 191.649 7.57191 191.189 8.32191C190.739 9.06191 190.124 9.63691 189.344 10.0469C188.564 10.4469 187.714 10.6469 186.794 10.6469ZM186.644 10.4219C187.444 10.4219 188.154 10.2569 188.774 9.92691C189.394 9.58691 189.874 9.09191 190.214 8.44191C190.564 7.78191 190.739 6.99191 190.739 6.07191C190.739 5.20191 190.574 4.41191 190.244 3.70191C189.914 2.99191 189.444 2.43191 188.834 2.02191C188.224 1.61191 187.519 1.40691 186.719 1.40691C186.289 1.40691 185.954 1.43191 185.714 1.48191C185.484 1.53191 185.314 1.63191 185.204 1.78191C185.094 1.93191 185.039 2.15691 185.039 2.45691V9.20691C185.039 9.50691 185.079 9.74191 185.159 9.91191C185.249 10.0819 185.409 10.2119 185.639 10.3019C185.879 10.3819 186.214 10.4219 186.644 10.4219Z" fill="black"/>
</svg>
